<?xml version="1.0" encoding="utf-8"?>
<!-- Generator: Adobe Illustrator 24.3.0, SVG Export Plug-In . SVG Version: 6.00 Build 0)  -->
<svg version="1.1" id="Layer_1" xmlns="http://www.w3.org/2000/svg" xmlns:xlink="http://www.w3.org/1999/xlink" x="0px" y="0px"
	 viewBox="0 0 100 100" style="enable-background:new 0 0 100 100;" xml:space="preserve">
<style type="text/css">
	.st0{fill:#FFFFFF;}
</style>
<rect x="0" y="0" class="st0" width="100" height="100"/>
<g>
	<g>
		<path d="M66.25,81.41c-9.24,11.75-24.94,14.46-35.07,6.05c-10.86-9.02-8.56-26.69-1.59-36.52c5.24-7.4,15.49-13.68,25.56-11.34
			c1.32,0.31,5.69,1.47,9.51,5.3C72.81,53.04,75.22,70.01,66.25,81.41z"/>
	</g>
	<g>
		<path d="M24.78,73.29c3.85,1.76,4.98,6.47,5.16,7.19c0.29,1.21,0.79,3.27,0,5.3c-1.74,4.48-9.29,7.68-14.36,4.17
			c-3.15-2.19-4.87-6.64-3.68-10.6C13.55,73.77,20.32,71.25,24.78,73.29z"/>
	</g>
	<path d="M51.81,92.66c6.38,0.07,12.77,0.55,19.15,0.38c19.33-0.51,24.54,1,25.27-1.2c0.94-2.83-6.79-8.13-11.64-10.54
		c-1.51-0.75-8.67-4.16-18.42-3.41c-3.17,0.25-9.24,1.13-15.47,4.92c-2.97,1.8-8.91,6.05-8.1,8.33
		C43.12,92.61,46.19,92.6,51.81,92.66z"/>
	<g>
		<path d="M49.82,18.04c5.07-6.76,17.63-8.97,26.71-3.76c10.03,5.76,11.29,17.98,11.4,19.21c-1.04,2.43-2.93,5.88-6.33,8.84
			c-7.77,6.77-19.15,7.16-27.34,3.05c-2.66-1.34-8.52-4.28-9.79-9.95c-1.27-5.68,2.45-12.36,4.09-15.3
			C49.12,19.12,49.4,18.61,49.82,18.04z"/>
	</g>
	<path d="M59.2,11.2c-6.15,0.29-21.16,2.26-21.16,2.26c-3.76,0.49-6.33,0.75-11,1.22C11.4,16.25,7.82,15.79,7.46,17.25
		c-0.6,2.46,8.68,7.53,16.96,9.83c10.29,2.87,18.58,1.34,20.44,0.96c5.72-1.15,9.37-3.15,16.29-6.93c3.01-1.64,10.62-5.7,10.03-7.65
		c-0.33-1.08-3.16-1.57-4.99-1.89c-0.8-0.14-1.44-0.19-2.32-0.26C63.87,11.32,61.49,11.09,59.2,11.2z"/>
</g>
</svg>
